<?xml version="1.0" encoding="UTF-8" standalone="no"?>
<svg
   xmlns:dc="http://purl.org/dc/elements/1.1/"
   xmlns:cc="http://creativecommons.org/ns#"
   xmlns:rdf="http://www.w3.org/1999/02/22-rdf-syntax-ns#"
   xmlns:svg="http://www.w3.org/2000/svg"
   xmlns="http://www.w3.org/2000/svg"
   xmlns:sodipodi="http://sodipodi.sourceforge.net/DTD/sodipodi-0.dtd"
   xmlns:inkscape="http://www.inkscape.org/namespaces/inkscape"
   width="179.69209mm"
   height="80.642372mm"
   viewBox="0 0 179.6921 80.642372"
   version="1.1"
   id="svg8"
   inkscape:version="1.0.1 (3bc2e813f5, 2020-09-07)"
   sodipodi:docname="logo.svg"
   inkscape:export-filename="C:\Users\au646069\Downloads\logo.png"
   inkscape:export-xdpi="300"
   inkscape:export-ydpi="300">
  <defs
     id="defs2">
    <marker
       style="overflow:visible"
       id="marker1722"
       refX="0"
       refY="0"
       orient="auto"
       inkscape:stockid="Arrow2Mend"
       inkscape:isstock="true">
      <path
         transform="scale(-0.6)"
         d="M 8.7185878,4.0337352 -2.2072895,0.01601326 8.7185884,-4.0017078 c -1.7454984,2.3720609 -1.7354408,5.6174519 -6e-7,8.035443 z"
         style="fill:#000000;fill-opacity:1;fill-rule:evenodd;stroke:#000000;stroke-width:0.625;stroke-linejoin:round;stroke-opacity:1"
         id="path1720" />
    </marker>
    <marker
       style="overflow:visible"
       id="marker1502"
       refX="0"
       refY="0"
       orient="auto"
       inkscape:stockid="Arrow2Lend"
       inkscape:isstock="true">
      <path
         transform="matrix(-1.1,0,0,-1.1,-1.1,0)"
         d="M 8.7185878,4.0337352 -2.2072895,0.01601326 8.7185884,-4.0017078 c -1.7454984,2.3720609 -1.7354408,5.6174519 -6e-7,8.035443 z"
         style="fill:#000000;fill-opacity:1;fill-rule:evenodd;stroke:#000000;stroke-width:0.625;stroke-linejoin:round;stroke-opacity:1"
         id="path1500" />
    </marker>
    <marker
       style="overflow:visible"
       id="marker1360"
       refX="0"
       refY="0"
       orient="auto"
       inkscape:stockid="Arrow2Lend"
       inkscape:isstock="true">
      <path
         transform="matrix(-1.1,0,0,-1.1,-1.1,0)"
         d="M 8.7185878,4.0337352 -2.2072895,0.01601326 8.7185884,-4.0017078 c -1.7454984,2.3720609 -1.7354408,5.6174519 -6e-7,8.035443 z"
         style="fill:#000000;fill-opacity:1;fill-rule:evenodd;stroke:#000000;stroke-width:0.625;stroke-linejoin:round;stroke-opacity:1"
         id="path1358" />
    </marker>
    <marker
       style="overflow:visible"
       id="Arrow2Mend"
       refX="0"
       refY="0"
       orient="auto"
       inkscape:stockid="Arrow2Mend"
       inkscape:isstock="true"
       inkscape:collect="always">
      <path
         transform="scale(-0.6)"
         d="M 8.7185878,4.0337352 -2.2072895,0.01601326 8.7185884,-4.0017078 c -1.7454984,2.3720609 -1.7354408,5.6174519 -6e-7,8.035443 z"
         style="fill:#000000;fill-opacity:1;fill-rule:evenodd;stroke:#000000;stroke-width:0.625;stroke-linejoin:round;stroke-opacity:1"
         id="path897" />
    </marker>
    <marker
       style="overflow:visible"
       id="Arrow2Lend"
       refX="0"
       refY="0"
       orient="auto"
       inkscape:stockid="Arrow2Lend"
       inkscape:isstock="true">
      <path
         transform="matrix(-1.1,0,0,-1.1,-1.1,0)"
         d="M 8.7185878,4.0337352 -2.2072895,0.01601326 8.7185884,-4.0017078 c -1.7454984,2.3720609 -1.7354408,5.6174519 -6e-7,8.035443 z"
         style="fill:#000000;fill-opacity:1;fill-rule:evenodd;stroke:#000000;stroke-width:0.625;stroke-linejoin:round;stroke-opacity:1"
         id="path891" />
    </marker>
    <marker
       style="overflow:visible"
       id="Arrow1Lend"
       refX="0"
       refY="0"
       orient="auto"
       inkscape:stockid="Arrow1Lend"
       inkscape:isstock="true">
      <path
         transform="matrix(-0.8,0,0,-0.8,-10,0)"
         style="fill:#000000;fill-opacity:1;fill-rule:evenodd;stroke:#000000;stroke-width:1pt;stroke-opacity:1"
         d="M 0,0 5,-5 -12.5,0 5,5 Z"
         id="path873" />
    </marker>
    <marker
       style="overflow:visible"
       id="marker1218"
       refX="0"
       refY="0"
       orient="auto"
       inkscape:stockid="DotL"
       inkscape:isstock="true">
      <path
         transform="matrix(0.8,0,0,0.8,5.92,0.8)"
         style="fill:#333333;fill-opacity:1;fill-rule:evenodd;stroke:#333333;stroke-width:1pt;stroke-opacity:1"
         d="m -2.5,-1 c 0,2.76 -2.24,5 -5,5 -2.76,0 -5,-2.24 -5,-5 0,-2.76 2.24,-5 5,-5 2.76,0 5,2.24 5,5 z"
         id="path1216" />
    </marker>
    <inkscape:path-effect
       effect="bspline"
       id="path-effect1214"
       is_visible="true"
       lpeversion="1"
       weight="33.333333"
       steps="2"
       helper_size="0"
       apply_no_weight="true"
       apply_with_weight="true"
       only_selected="false" />
    <marker
       style="overflow:visible"
       id="DotL"
       refX="0"
       refY="0"
       orient="auto"
       inkscape:stockid="DotL"
       inkscape:isstock="true"
       inkscape:collect="always">
      <path
         transform="matrix(0.8,0,0,0.8,5.92,0.8)"
         style="fill:#333333;fill-opacity:1;fill-rule:evenodd;stroke:#333333;stroke-width:1pt;stroke-opacity:1"
         d="m -2.5,-1 c 0,2.76 -2.24,5 -5,5 -2.76,0 -5,-2.24 -5,-5 0,-2.76 2.24,-5 5,-5 2.76,0 5,2.24 5,5 z"
         id="path931" />
    </marker>
    <inkscape:path-effect
       effect="bspline"
       id="path-effect868"
       is_visible="true"
       lpeversion="1"
       weight="33.333333"
       steps="2"
       helper_size="0"
       apply_no_weight="true"
       apply_with_weight="true"
       only_selected="false" />
    <inkscape:path-effect
       effect="bspline"
       id="path-effect864"
       is_visible="true"
       lpeversion="1"
       weight="33.333333"
       steps="2"
       helper_size="0"
       apply_no_weight="true"
       apply_with_weight="true"
       only_selected="false" />
    <inkscape:path-effect
       effect="bspline"
       id="path-effect860"
       is_visible="true"
       lpeversion="1"
       weight="33.333333"
       steps="2"
       helper_size="0"
       apply_no_weight="true"
       apply_with_weight="true"
       only_selected="false" />
  </defs>
  <sodipodi:namedview
     id="base"
     pagecolor="#ffffff"
     bordercolor="#666666"
     borderopacity="1.0"
     inkscape:pageopacity="0.0"
     inkscape:pageshadow="2"
     inkscape:zoom="0.98994949"
     inkscape:cx="276.89579"
     inkscape:cy="71.362506"
     inkscape:document-units="mm"
     inkscape:current-layer="text835"
     inkscape:document-rotation="0"
     showgrid="false"
     inkscape:window-width="2560"
     inkscape:window-height="1351"
     inkscape:window-x="-9"
     inkscape:window-y="-9"
     inkscape:window-maximized="1" />
  <metadata
     id="metadata5">
    <rdf:RDF>
      <cc:Work
         rdf:about="">
        <dc:format>image/svg+xml</dc:format>
        <dc:type
           rdf:resource="http://purl.org/dc/dcmitype/StillImage" />
        <dc:title></dc:title>
      </cc:Work>
    </rdf:RDF>
  </metadata>
  <g
     inkscape:label="Layer 1"
     inkscape:groupmode="layer"
     id="layer1"
     transform="translate(-13.108339,8.2206855)">
    <g
       aria-label="HGF"
       id="text835"
       style="font-style:normal;font-variant:normal;font-weight:normal;font-stretch:normal;font-size:84.0967px;line-height:1.25;font-family:'Arial Rounded MT Bold';-inkscape-font-specification:'Arial Rounded MT Bold, Normal';font-variant-ligatures:normal;font-variant-caps:normal;font-variant-numeric:normal;font-variant-east-asian:normal;letter-spacing:0px;word-spacing:0px;fill:#000000;fill-opacity:1;stroke:none;stroke-width:2.10242">
      <g
         id="g2814"
         style="opacity:0.5"
         transform="matrix(0.53175022,0,0,1,64.14552,0)">
        <rect
           style="fill:#214478;fill-opacity:1;stroke:none;stroke-width:0.392282;stroke-linejoin:round;stroke-miterlimit:4;stroke-dasharray:none"
           id="rect1928"
           width="75.292191"
           height="23.295351"
           x="68.155457"
           y="23.743015"
           ry="4.3467264"
           rx="8.1743765" />
        <rect
           style="fill:#ffffff;fill-opacity:0.202857;stroke:none;stroke-width:0.392282;stroke-linejoin:round;stroke-miterlimit:4;stroke-dasharray:none"
           id="rect2780"
           width="75.292191"
           height="23.295351"
           x="68.155457"
           y="23.743015"
           ry="4.3467264"
           rx="8.1743765" />
      </g>
      <g
         id="g2818"
         style="opacity:0.5"
         transform="matrix(0.51605404,0,0,1,66.397091,0)">
        <rect
           style="fill:#87aade;fill-opacity:0.994286;stroke:none;stroke-width:0.527244;stroke-linejoin:round;stroke-miterlimit:4;stroke-dasharray:none"
           id="rect1926"
           width="136.01231"
           height="23.295351"
           x="7.4353099"
           y="49.126339"
           ry="4.3467264"
           rx="8.4230061" />
        <rect
           style="fill:#ffffff;fill-opacity:0.197143;stroke:none;stroke-width:0.527244;stroke-linejoin:round;stroke-miterlimit:4;stroke-dasharray:none"
           id="rect2782"
           width="136.01231"
           height="23.295351"
           x="7.4353099"
           y="49.126339"
           ry="4.3467264"
           rx="8.4230061" />
      </g>
      <g
         id="g2810"
         style="opacity:0.5"
         transform="matrix(0.59216546,0,0,1,55.479094,0)">
        <rect
           style="fill:#161650;fill-opacity:1;stroke:none;stroke-width:0.265659;stroke-linejoin:round;stroke-miterlimit:4;stroke-dasharray:none"
           id="rect1990"
           width="34.530602"
           height="23.295351"
           x="108.91704"
           y="-1.6403112"
           ry="4.3467264"
           rx="7.3403916" />
        <rect
           style="fill:#ffffff;fill-opacity:0.2;stroke:none;stroke-width:0.265578;stroke-linejoin:round;stroke-miterlimit:4;stroke-dasharray:none"
           id="rect2778"
           width="34.530602"
           height="23.295351"
           x="108.91704"
           y="-1.6403112"
           ry="4.3467264"
           rx="7.3403916" />
      </g>
      <path
         d="m 186.76597,14.457287 h -25.21544 v 16.163742 h 21.07752 q 2.93103,0 4.35343,1.336204 1.46552,1.293094 1.46552,3.491367 0,2.198264 -1.46552,3.491367 -1.46551,1.293104 -4.35343,1.293104 h -21.07752 v 20.818891 q 0,3.965502 -1.81034,5.905153 -1.76722,1.89654 -4.56895,1.89654 -2.84482,0 -4.65516,-1.939651 -1.76723,-1.93964 -1.76723,-5.862042 V 12.431436 q 0,-2.7586097 0.81896,-4.4827376 0.81896,-1.7672392 2.54309,-2.5430974 1.76724,-0.818969 4.48275,-0.818969 h 30.17232 q 3.06033,0 4.52584,1.3793046 1.50862,1.3362043 1.50862,3.5344777 0,2.2413747 -1.50862,3.6206797 -1.46551,1.336193 -4.52584,1.336193 z"
         style="font-style:normal;font-variant:normal;font-weight:normal;font-stretch:normal;font-size:84.0967px;font-family:'Arial Rounded MT Bold';-inkscape-font-specification:'Arial Rounded MT Bold, Normal';font-variant-ligatures:normal;font-variant-caps:normal;font-variant-numeric:normal;font-variant-east-asian:normal;opacity:0.5;fill:#464674;fill-opacity:0.501961;stroke-width:2.20689"
         id="path841" />
      <circle
         style="fill:#161650;stroke:#161650;stroke-width:0.543848;stroke-linejoin:round"
         id="path844"
         cx="155.23283"
         cy="9.2557955"
         r="7.8326879" />
      <circle
         style="fill:#214478;stroke:#214478;stroke-width:0.543848;stroke-linejoin:round"
         id="circle846"
         cx="155.23283"
         cy="35.185349"
         r="7.8326879" />
      <circle
         style="fill:#87aade;stroke:#87aade;stroke-width:0.543848;stroke-linejoin:round"
         id="circle848"
         cx="155.23283"
         cy="60.585732"
         r="7.8326879" />
      <circle
         style="fill:#a02c2c;stroke:#a02c2c;stroke-width:0.457677;stroke-linejoin:round"
         id="circle850"
         cx="183.00429"
         cy="-1.4002218"
         r="6.5916252" />
      <circle
         style="fill:#c87137;stroke:#c87137;stroke-width:0.457677;stroke-linejoin:round"
         id="circle852"
         cx="183.00429"
         cy="24.627575"
         r="6.5916252" />
      <path
         style="fill:none;stroke:#333333;stroke-width:0.258518;stroke-linecap:butt;stroke-linejoin:miter;stroke-miterlimit:4;stroke-dasharray:none;stroke-opacity:1;marker-end:url(#DotL)"
         d="m 176.18069,-1.3317544 c -3.38078,0.2462384 -6.7618,0.49249415 -9.23528,1.33276549 -2.47348,0.84027134 -4.03917,2.27449111 -5.60486,3.70871981"
         id="path866"
         inkscape:path-effect="#path-effect868"
         inkscape:original-d="m 176.18069,-1.3317544 c -3.38076,0.2465339 -6.76178,0.49278857 -10.14302,0.73876437 -1.56549,1.43454731 -3.13118,2.86876083 -4.69712,4.30272093"
         sodipodi:nodetypes="ccc" />
      <path
         style="fill:none;stroke:#333333;stroke-width:0.258518;stroke-linecap:butt;stroke-linejoin:miter;stroke-miterlimit:4;stroke-dasharray:none;stroke-opacity:1;marker-end:url(#marker1218)"
         d="m 176.18069,24.773001 c -3.38078,0.246241 -6.7618,0.492499 -9.23528,1.332773 -2.47348,0.840273 -4.03917,2.274493 -5.60486,3.708722"
         id="path1212"
         inkscape:path-effect="#path-effect1214"
         inkscape:original-d="m 176.18069,24.773001 c -3.38076,0.246538 -6.76178,0.492793 -10.14302,0.738772 -1.56549,1.43455 -3.13118,2.868763 -4.69712,4.302723"
         sodipodi:nodetypes="ccc" />
      <path
         style="fill:none;stroke:#000000;stroke-width:0.583495;stroke-linecap:butt;stroke-linejoin:miter;stroke-miterlimit:4;stroke-dasharray:none;stroke-opacity:1;marker-end:url(#Arrow2Mend)"
         d="m 155.22621,17.291499 v 8.98876"
         id="path1260" />
      <path
         style="fill:none;stroke:#000000;stroke-width:0.560777;stroke-linecap:butt;stroke-linejoin:miter;stroke-miterlimit:4;stroke-dasharray:none;stroke-opacity:1;marker-end:url(#marker1722)"
         d="m 155.22621,43.410352 v 8.302411"
         id="path1718" />
      <path
         d="M 26.205004,14.01639 V 31.262784 H 52.526286 V 14.01639 q 0,-3.695656 1.642514,-5.5434838 1.683576,-1.847828 4.393724,-1.847828 2.75121,0 4.434787,1.847828 1.724639,1.8067648 1.724639,5.5434838 v 47.427584 q 0,3.736718 -1.724639,5.584546 -1.724639,1.847828 -4.434787,1.847828 -2.751211,0 -4.393724,-1.847828 -1.642514,-1.88889 -1.642514,-5.584546 V 41.199992 H 26.205004 v 20.243982 q 0,3.736718 -1.72464,5.584546 -1.724639,1.847828 -4.434787,1.847828 -2.75121,0 -4.393724,-1.847828 -1.642514,-1.88889 -1.642514,-5.584546 V 14.01639 q 0,-3.695656 1.601451,-5.5434838 1.642514,-1.847828 4.434787,-1.847828 2.751211,0 4.434787,1.847828 1.72464,1.8067648 1.72464,5.5434838 z"
         style="font-style:normal;font-variant:normal;font-weight:normal;font-stretch:normal;font-size:84.0967px;font-family:'Arial Rounded MT Bold';-inkscape-font-specification:'Arial Rounded MT Bold, Normal';font-variant-ligatures:normal;font-variant-caps:normal;font-variant-numeric:normal;font-variant-east-asian:normal;fill:#f9f9f9;stroke:#1a1a1a;stroke-width:1.802;stroke-miterlimit:4;stroke-dasharray:none"
         id="path837" />
      <path
         d="m 132.80414,43.376323 v 11.538659 q 0,2.299519 -0.45169,3.695656 -0.45169,1.355073 -1.68357,2.46377 -1.19083,1.108697 -3.07972,2.135268 -5.46136,2.956525 -10.51208,4.311598 -5.05073,1.355074 -11.00485,1.355074 -6.939617,0 -12.647353,-2.135268 -5.707735,-2.135267 -9.731893,-6.200489 -4.024159,-4.065221 -6.20049,-9.855082 -2.135267,-5.789861 -2.135267,-12.934796 0,-7.021746 2.094205,-12.85267 2.094205,-5.830923 6.159426,-9.896145 4.065221,-4.065221 9.896145,-6.2004891 5.830924,-2.1763307 13.222237,-2.1763307 6.0773,0 10.75846,1.6425137 4.68117,1.6014509 7.59663,4.0652211 2.91546,2.463771 4.39372,5.214981 1.47827,2.751211 1.47827,4.886479 0,2.299519 -1.72464,3.942033 -1.68358,1.601451 -4.06522,1.601451 -1.31402,0 -2.5459,-0.615943 -1.19082,-0.615943 -2.01208,-1.724639 -2.25846,-3.531405 -3.81884,-5.33817 -1.56039,-1.806765 -4.22948,-3.03865 -2.62802,-1.231886 -6.7343,-1.231886 -4.22948,0 -7.555567,1.478263 -3.32609,1.437199 -5.707735,4.229472 -2.340582,2.751211 -3.61353,6.77537 -1.231886,4.024158 -1.231886,8.910637 0,10.594213 4.845416,16.301948 4.886478,5.707735 13.591802,5.707735 4.22947,0 7.92513,-1.108696 3.73672,-1.108697 7.55556,-3.161839 v -9.772957 h -9.44445 q -3.40822,0 -5.17392,-1.026571 -1.72464,-1.026571 -1.72464,-3.490342 0,-2.012079 1.4372,-3.32609 1.47826,-1.314011 3.98309,-1.314011 h 13.83818 q 2.5459,0 4.3116,0.451691 1.7657,0.451692 2.83334,2.01208 1.10869,1.560388 1.10869,4.681164 z"
         style="font-style:normal;font-variant:normal;font-weight:normal;font-stretch:normal;font-size:84.0967px;font-family:'Arial Rounded MT Bold';-inkscape-font-specification:'Arial Rounded MT Bold, Normal';font-variant-ligatures:normal;font-variant-caps:normal;font-variant-numeric:normal;font-variant-east-asian:normal;fill:#ffffff;stroke:#ffffff;stroke-width:1.802;stroke-miterlimit:4;stroke-dasharray:none"
         id="path2928" />
      <path
         d="m 132.80414,43.376323 v 11.538659 q 0,2.299519 -0.45169,3.695656 -0.45169,1.355073 -1.68357,2.46377 -1.19083,1.108697 -3.07972,2.135268 -5.46136,2.956525 -10.51208,4.311598 -5.05073,1.355074 -11.00485,1.355074 -6.939617,0 -12.647353,-2.135268 -5.707735,-2.135267 -9.731893,-6.200489 -4.024159,-4.065221 -6.20049,-9.855082 -2.135267,-5.789861 -2.135267,-12.934796 0,-7.021746 2.094205,-12.85267 2.094205,-5.830923 6.159426,-9.896145 4.065221,-4.065221 9.896145,-6.2004891 5.830924,-2.1763307 13.222237,-2.1763307 6.0773,0 10.75846,1.6425137 4.68117,1.6014509 7.59663,4.0652211 2.91546,2.463771 4.39372,5.214981 1.47827,2.751211 1.47827,4.886479 0,2.299519 -1.72464,3.942033 -1.68358,1.601451 -4.06522,1.601451 -1.31402,0 -2.5459,-0.615943 -1.19082,-0.615943 -2.01208,-1.724639 -2.25846,-3.531405 -3.81884,-5.33817 -1.56039,-1.806765 -4.22948,-3.03865 -2.62802,-1.231886 -6.7343,-1.231886 -4.22948,0 -7.555567,1.478263 -3.32609,1.437199 -5.707735,4.229472 -2.340582,2.751211 -3.61353,6.77537 -1.231886,4.024158 -1.231886,8.910637 0,10.594213 4.845416,16.301948 4.886478,5.707735 13.591802,5.707735 4.22947,0 7.92513,-1.108696 3.73672,-1.108697 7.55556,-3.161839 v -9.772957 h -9.44445 q -3.40822,0 -5.17392,-1.026571 -1.72464,-1.026571 -1.72464,-3.490342 0,-2.012079 1.4372,-3.32609 1.47826,-1.314011 3.98309,-1.314011 h 13.83818 q 2.5459,0 4.3116,0.451691 1.7657,0.451692 2.83334,2.01208 1.10869,1.560388 1.10869,4.681164 z"
         style="font-style:normal;font-variant:normal;font-weight:normal;font-stretch:normal;font-size:84.0967px;font-family:'Arial Rounded MT Bold';-inkscape-font-specification:'Arial Rounded MT Bold, Normal';font-variant-ligatures:normal;font-variant-caps:normal;font-variant-numeric:normal;font-variant-east-asian:normal;fill:#000000;fill-opacity:0;stroke:#1a1a1a;stroke-width:1.802;stroke-miterlimit:4;stroke-dasharray:none"
         id="path839" />
    </g>
  </g>
</svg>
