<?xml version="1.0" encoding="UTF-8" standalone="no"?>
<!DOCTYPE svg PUBLIC "-//W3C//DTD SVG 1.1//EN"
 "http://www.w3.org/Graphics/SVG/1.1/DTD/svg11.dtd">
<!-- Generated by graphviz version 2.43.0 (0)
 -->
<!-- Title: hgf&#45;nodes Pages: 1 -->
<svg width="154pt" height="188pt"
 viewBox="0.00 0.00 153.69 188.00" xmlns="http://www.w3.org/2000/svg" xmlns:xlink="http://www.w3.org/1999/xlink">
<g id="graph0" class="graph" transform="scale(1 1) rotate(0) translate(4 184)">
<title>hgf&#45;nodes</title>
<polygon fill="white" stroke="transparent" points="-4,4 -4,-184 149.69,-184 149.69,4 -4,4"/>
<!-- x_0 -->
<g id="node1" class="node">
<title>x_0</title>
<ellipse fill="lightgrey" stroke="black" cx="31.85" cy="-18" rx="31.7" ry="18"/>
<text text-anchor="middle" x="31.85" y="-14.3" font-family="Times,serif" font-size="14.00">Co&#45;0</text>
</g>
<!-- x_1 -->
<g id="node2" class="node">
<title>x_1</title>
<ellipse fill="lightgrey" stroke="black" cx="113.85" cy="-18" rx="31.7" ry="18"/>
<text text-anchor="middle" x="113.85" y="-14.3" font-family="Times,serif" font-size="14.00">Co&#45;1</text>
</g>
<!-- x_2 -->
<g id="node3" class="node">
<title>x_2</title>
<ellipse fill="none" stroke="black" cx="45.85" cy="-90" rx="18" ry="18"/>
<text text-anchor="middle" x="45.85" y="-86.3" font-family="Times,serif" font-size="14.00">2</text>
</g>
<!-- x_2&#45;&gt;x_0 -->
<g id="edge1" class="edge">
<title>x_2&#45;&gt;x_0</title>
<path fill="none" stroke="black" d="M42.46,-72.05C40.92,-64.35 39.05,-55.03 37.32,-46.36"/>
<polygon fill="black" stroke="black" points="40.7,-45.39 35.3,-36.28 33.83,-46.77 40.7,-45.39"/>
</g>
<!-- x_3 -->
<g id="node4" class="node">
<title>x_3</title>
<ellipse fill="none" stroke="black" cx="106.85" cy="-90" rx="18" ry="18"/>
<text text-anchor="middle" x="106.85" y="-86.3" font-family="Times,serif" font-size="14.00">3</text>
</g>
<!-- x_3&#45;&gt;x_1 -->
<g id="edge2" class="edge">
<title>x_3&#45;&gt;x_1</title>
<path fill="none" stroke="black" d="M108.54,-72.05C109.31,-64.35 110.24,-55.03 111.11,-46.36"/>
<polygon fill="black" stroke="black" points="114.61,-46.57 112.12,-36.28 107.64,-45.88 114.61,-46.57"/>
</g>
<!-- x_4 -->
<g id="node5" class="node">
<title>x_4</title>
<ellipse fill="none" stroke="black" cx="72.85" cy="-162" rx="18" ry="18"/>
<text text-anchor="middle" x="72.85" y="-158.3" font-family="Times,serif" font-size="14.00">4</text>
</g>
<!-- x_4&#45;&gt;x_2 -->
<g id="edge3" class="edge">
<title>x_4&#45;&gt;x_2</title>
<path fill="none" stroke="gray" stroke-dasharray="5,2" d="M66.58,-144.76C63.14,-135.84 58.81,-124.61 55,-114.72"/>
<ellipse fill="gray" stroke="gray" cx="53.51" cy="-110.88" rx="4" ry="4"/>
</g>
<!-- x_4&#45;&gt;x_3 -->
<g id="edge4" class="edge">
<title>x_4&#45;&gt;x_3</title>
<path fill="none" stroke="gray" stroke-dasharray="5,2" d="M80.39,-145.46C84.93,-136.13 90.78,-124.09 95.82,-113.7"/>
<ellipse fill="gray" stroke="gray" cx="97.57" cy="-110.09" rx="4" ry="4"/>
</g>
</g>
</svg>