<?xml version="1.0" encoding="UTF-8" standalone="no"?>
<!DOCTYPE svg PUBLIC "-//W3C//DTD SVG 1.1//EN"
 "http://www.w3.org/Graphics/SVG/1.1/DTD/svg11.dtd">
<!-- Generated by graphviz version 2.43.0 (0)
 -->
<!-- Title: %3 Pages: 1 -->
<svg width="810pt" height="355pt"
 viewBox="0.00 0.00 810.38 354.86" xmlns="http://www.w3.org/2000/svg" xmlns:xlink="http://www.w3.org/1999/xlink">
<g id="graph0" class="graph" transform="scale(1 1) rotate(0) translate(4 350.86)">
<title>%3</title>
<polygon fill="white" stroke="transparent" points="-4,4 -4,-350.86 806.38,-350.86 806.38,4 -4,4"/>
<g id="clust1" class="cluster">
<title>cluster10</title>
<path fill="none" stroke="black" d="M213.17,-129.95C213.17,-129.95 571.17,-129.95 571.17,-129.95 577.17,-129.95 583.17,-135.95 583.17,-141.95 583.17,-141.95 583.17,-231.91 583.17,-231.91 583.17,-237.91 577.17,-243.91 571.17,-243.91 571.17,-243.91 213.17,-243.91 213.17,-243.91 207.17,-243.91 201.17,-237.91 201.17,-231.91 201.17,-231.91 201.17,-141.95 201.17,-141.95 201.17,-135.95 207.17,-129.95 213.17,-129.95"/>
<text text-anchor="middle" x="565.67" y="-137.75" font-family="Times,serif" font-size="14.00">10</text>
</g>
<g id="clust2" class="cluster">
<title>cluster10 x 320</title>
<path fill="none" stroke="black" d="M154.17,-8C154.17,-8 637.17,-8 637.17,-8 643.17,-8 649.17,-14 649.17,-20 649.17,-20 649.17,-109.95 649.17,-109.95 649.17,-115.95 643.17,-121.95 637.17,-121.95 637.17,-121.95 154.17,-121.95 154.17,-121.95 148.17,-121.95 142.17,-115.95 142.17,-109.95 142.17,-109.95 142.17,-20 142.17,-20 142.17,-14 148.17,-8 154.17,-8"/>
<text text-anchor="middle" x="609.67" y="-15.8" font-family="Times,serif" font-size="14.00">10 x 320</text>
</g>
<!-- mu_temperature -->
<g id="node1" class="node">
<title>mu_temperature</title>
<ellipse fill="none" stroke="black" cx="96.17" cy="-309.38" rx="96.33" ry="37.45"/>
<text text-anchor="middle" x="96.17" y="-320.68" font-family="Times,serif" font-size="14.00">mu_temperature</text>
<text text-anchor="middle" x="96.17" y="-305.68" font-family="Times,serif" font-size="14.00">~</text>
<text text-anchor="middle" x="96.17" y="-290.68" font-family="Times,serif" font-size="14.00">Normal</text>
</g>
<!-- inverse_temperature -->
<g id="node5" class="node">
<title>inverse_temperature</title>
<ellipse fill="none" stroke="black" cx="326.17" cy="-198.43" rx="117.26" ry="37.45"/>
<text text-anchor="middle" x="326.17" y="-209.73" font-family="Times,serif" font-size="14.00">inverse_temperature</text>
<text text-anchor="middle" x="326.17" y="-194.73" font-family="Times,serif" font-size="14.00">~</text>
<text text-anchor="middle" x="326.17" y="-179.73" font-family="Times,serif" font-size="14.00">LogNormal</text>
</g>
<!-- mu_temperature&#45;&gt;inverse_temperature -->
<g id="edge3" class="edge">
<title>mu_temperature&#45;&gt;inverse_temperature</title>
<path fill="none" stroke="black" d="M156,-280.04C185.55,-266.04 221.49,-249.02 252.7,-234.23"/>
<polygon fill="black" stroke="black" points="254.26,-237.37 261.8,-229.92 251.26,-231.04 254.26,-237.37"/>
</g>
<!-- sigma_temperature -->
<g id="node2" class="node">
<title>sigma_temperature</title>
<ellipse fill="none" stroke="black" cx="320.17" cy="-309.38" rx="110.12" ry="37.45"/>
<text text-anchor="middle" x="320.17" y="-320.68" font-family="Times,serif" font-size="14.00">sigma_temperature</text>
<text text-anchor="middle" x="320.17" y="-305.68" font-family="Times,serif" font-size="14.00">~</text>
<text text-anchor="middle" x="320.17" y="-290.68" font-family="Times,serif" font-size="14.00">HalfNormal</text>
</g>
<!-- sigma_temperature&#45;&gt;inverse_temperature -->
<g id="edge4" class="edge">
<title>sigma_temperature&#45;&gt;inverse_temperature</title>
<path fill="none" stroke="black" d="M322.18,-271.8C322.63,-263.63 323.11,-254.85 323.58,-246.32"/>
<polygon fill="black" stroke="black" points="327.09,-246.28 324.15,-236.1 320.1,-245.89 327.09,-246.28"/>
</g>
<!-- mu_volatility -->
<g id="node3" class="node">
<title>mu_volatility</title>
<ellipse fill="none" stroke="black" cx="525.17" cy="-309.38" rx="77.15" ry="37.45"/>
<text text-anchor="middle" x="525.17" y="-320.68" font-family="Times,serif" font-size="14.00">mu_volatility</text>
<text text-anchor="middle" x="525.17" y="-305.68" font-family="Times,serif" font-size="14.00">~</text>
<text text-anchor="middle" x="525.17" y="-290.68" font-family="Times,serif" font-size="14.00">Normal</text>
</g>
<!-- volatility -->
<g id="node6" class="node">
<title>volatility</title>
<ellipse fill="none" stroke="black" cx="518.17" cy="-198.43" rx="56.64" ry="37.45"/>
<text text-anchor="middle" x="518.17" y="-209.73" font-family="Times,serif" font-size="14.00">volatility</text>
<text text-anchor="middle" x="518.17" y="-194.73" font-family="Times,serif" font-size="14.00">~</text>
<text text-anchor="middle" x="518.17" y="-179.73" font-family="Times,serif" font-size="14.00">Normal</text>
</g>
<!-- mu_volatility&#45;&gt;volatility -->
<g id="edge1" class="edge">
<title>mu_volatility&#45;&gt;volatility</title>
<path fill="none" stroke="black" d="M522.82,-271.8C522.29,-263.63 521.73,-254.85 521.18,-246.32"/>
<polygon fill="black" stroke="black" points="524.66,-245.86 520.52,-236.1 517.67,-246.31 524.66,-245.86"/>
</g>
<!-- sigma_volatility -->
<g id="node4" class="node">
<title>sigma_volatility</title>
<ellipse fill="none" stroke="black" cx="711.17" cy="-309.38" rx="91.43" ry="37.45"/>
<text text-anchor="middle" x="711.17" y="-320.68" font-family="Times,serif" font-size="14.00">sigma_volatility</text>
<text text-anchor="middle" x="711.17" y="-305.68" font-family="Times,serif" font-size="14.00">~</text>
<text text-anchor="middle" x="711.17" y="-290.68" font-family="Times,serif" font-size="14.00">HalfNormal</text>
</g>
<!-- sigma_volatility&#45;&gt;volatility -->
<g id="edge2" class="edge">
<title>sigma_volatility&#45;&gt;volatility</title>
<path fill="none" stroke="black" d="M658.43,-278.61C630.85,-263.04 597.23,-244.06 569.82,-228.59"/>
<polygon fill="black" stroke="black" points="571.2,-225.35 560.78,-223.48 567.76,-231.45 571.2,-225.35"/>
</g>
<!-- pointwise_loglikelihood -->
<g id="node7" class="node">
<title>pointwise_loglikelihood</title>
<polygon fill="none" stroke="black" points="640.67,-102.98 457.67,-102.98 457.67,-49.98 640.67,-49.98 640.67,-102.98"/>
<text text-anchor="middle" x="549.17" y="-87.78" font-family="Times,serif" font-size="14.00">pointwise_loglikelihood</text>
<text text-anchor="middle" x="549.17" y="-72.78" font-family="Times,serif" font-size="14.00">~</text>
<text text-anchor="middle" x="549.17" y="-57.78" font-family="Times,serif" font-size="14.00">Deterministic</text>
</g>
<!-- inverse_temperature&#45;&gt;pointwise_loglikelihood -->
<g id="edge7" class="edge">
<title>inverse_temperature&#45;&gt;pointwise_loglikelihood</title>
<path fill="none" stroke="black" d="M384.76,-165.91C418.02,-148.02 459.46,-125.73 492.42,-108"/>
<polygon fill="black" stroke="black" points="494.32,-110.95 501.47,-103.13 491.01,-104.79 494.32,-110.95"/>
</g>
<!-- log_likelihood -->
<g id="node8" class="node">
<title>log_likelihood</title>
<ellipse fill="lightgrey" stroke="black" cx="295.17" cy="-76.48" rx="144.91" ry="37.45"/>
<text text-anchor="middle" x="295.17" y="-87.78" font-family="Times,serif" font-size="14.00">log_likelihood</text>
<text text-anchor="middle" x="295.17" y="-72.78" font-family="Times,serif" font-size="14.00">~</text>
<text text-anchor="middle" x="295.17" y="-57.78" font-family="Times,serif" font-size="14.00">CustomDist_log_likelihood</text>
</g>
<!-- inverse_temperature&#45;&gt;log_likelihood -->
<g id="edge5" class="edge">
<title>inverse_temperature&#45;&gt;log_likelihood</title>
<path fill="none" stroke="black" d="M316.7,-160.79C313.69,-149.16 310.33,-136.15 307.17,-123.93"/>
<polygon fill="black" stroke="black" points="310.47,-122.7 304.58,-113.89 303.69,-124.45 310.47,-122.7"/>
</g>
<!-- volatility&#45;&gt;pointwise_loglikelihood -->
<g id="edge8" class="edge">
<title>volatility&#45;&gt;pointwise_loglikelihood</title>
<path fill="none" stroke="black" d="M527.47,-161.44C531.41,-146.19 535.99,-128.46 539.93,-113.23"/>
<polygon fill="black" stroke="black" points="543.42,-113.71 542.53,-103.15 536.64,-111.96 543.42,-113.71"/>
</g>
<!-- volatility&#45;&gt;log_likelihood -->
<g id="edge6" class="edge">
<title>volatility&#45;&gt;log_likelihood</title>
<path fill="none" stroke="black" d="M492.22,-164.92C480.99,-152.57 467.03,-139.26 452.17,-129.95 437.91,-121.03 421.97,-113.44 405.86,-107.05"/>
<polygon fill="black" stroke="black" points="406.96,-103.72 396.37,-103.42 404.46,-110.26 406.96,-103.72"/>
</g>
</g>
</svg>