<?xml version="1.0" encoding="UTF-8" standalone="no"?>
<!DOCTYPE svg PUBLIC "-//W3C//DTD SVG 1.1//EN"
 "http://www.w3.org/Graphics/SVG/1.1/DTD/svg11.dtd">
<!-- Generated by graphviz version 2.43.0 (0)
 -->
<!-- Title: hgf&#45;nodes Pages: 1 -->
<svg width="400pt" height="197pt"
 viewBox="0.00 0.00 399.69 197.50" xmlns="http://www.w3.org/2000/svg" xmlns:xlink="http://www.w3.org/1999/xlink">
<g id="graph0" class="graph" transform="scale(1 1) rotate(0) translate(4 193.5)">
<title>hgf&#45;nodes</title>
<polygon fill="white" stroke="transparent" points="-4,4 -4,-193.5 395.69,-193.5 395.69,4 -4,4"/>
<!-- x_0 -->
<g id="node1" class="node">
<title>x_0</title>
<ellipse fill="lightgrey" stroke="black" cx="31.85" cy="-18" rx="31.7" ry="18"/>
<text text-anchor="middle" x="31.85" y="-14.3" font-family="Times,serif" font-size="14.00">Co&#45;0</text>
</g>
<!-- x_1 -->
<g id="node2" class="node">
<title>x_1</title>
<ellipse fill="lightgrey" stroke="black" cx="113.85" cy="-18" rx="31.7" ry="18"/>
<text text-anchor="middle" x="113.85" y="-14.3" font-family="Times,serif" font-size="14.00">Co&#45;1</text>
</g>
<!-- x_2 -->
<g id="node3" class="node">
<title>x_2</title>
<ellipse fill="lightgrey" stroke="black" cx="195.85" cy="-18" rx="31.7" ry="18"/>
<text text-anchor="middle" x="195.85" y="-14.3" font-family="Times,serif" font-size="14.00">Co&#45;2</text>
</g>
<!-- x_3 -->
<g id="node4" class="node">
<title>x_3</title>
<ellipse fill="lightgrey" stroke="black" cx="277.85" cy="-18" rx="31.7" ry="18"/>
<text text-anchor="middle" x="277.85" y="-14.3" font-family="Times,serif" font-size="14.00">Co&#45;3</text>
</g>
<!-- x_4 -->
<g id="node5" class="node">
<title>x_4</title>
<ellipse fill="lightgrey" stroke="black" cx="359.85" cy="-18" rx="31.7" ry="18"/>
<text text-anchor="middle" x="359.85" y="-14.3" font-family="Times,serif" font-size="14.00">Co&#45;4</text>
</g>
<!-- x_5 -->
<g id="node6" class="node">
<title>x_5</title>
<ellipse fill="none" stroke="black" cx="31.85" cy="-90" rx="18" ry="18"/>
<text text-anchor="middle" x="31.85" y="-86.3" font-family="Times,serif" font-size="14.00">5</text>
</g>
<!-- x_5&#45;&gt;x_0 -->
<g id="edge1" class="edge">
<title>x_5&#45;&gt;x_0</title>
<path fill="none" stroke="black" d="M31.85,-71.7C31.85,-63.98 31.85,-54.71 31.85,-46.11"/>
<polygon fill="black" stroke="black" points="35.35,-46.1 31.85,-36.1 28.35,-46.1 35.35,-46.1"/>
</g>
<!-- x_6 -->
<g id="node7" class="node">
<title>x_6</title>
<ellipse fill="none" stroke="black" cx="113.85" cy="-90" rx="18" ry="18"/>
<text text-anchor="middle" x="113.85" y="-86.3" font-family="Times,serif" font-size="14.00">6</text>
</g>
<!-- x_6&#45;&gt;x_1 -->
<g id="edge2" class="edge">
<title>x_6&#45;&gt;x_1</title>
<path fill="none" stroke="black" d="M113.85,-71.7C113.85,-63.98 113.85,-54.71 113.85,-46.11"/>
<polygon fill="black" stroke="black" points="117.35,-46.1 113.85,-36.1 110.35,-46.1 117.35,-46.1"/>
</g>
<!-- x_7 -->
<g id="node8" class="node">
<title>x_7</title>
<ellipse fill="none" stroke="black" cx="195.85" cy="-90" rx="18" ry="18"/>
<text text-anchor="middle" x="195.85" y="-86.3" font-family="Times,serif" font-size="14.00">7</text>
</g>
<!-- x_7&#45;&gt;x_2 -->
<g id="edge3" class="edge">
<title>x_7&#45;&gt;x_2</title>
<path fill="none" stroke="black" d="M195.85,-71.7C195.85,-63.98 195.85,-54.71 195.85,-46.11"/>
<polygon fill="black" stroke="black" points="199.35,-46.1 195.85,-36.1 192.35,-46.1 199.35,-46.1"/>
</g>
<!-- x_8 -->
<g id="node9" class="node">
<title>x_8</title>
<ellipse fill="none" stroke="black" cx="277.85" cy="-90" rx="18" ry="18"/>
<text text-anchor="middle" x="277.85" y="-86.3" font-family="Times,serif" font-size="14.00">8</text>
</g>
<!-- x_8&#45;&gt;x_3 -->
<g id="edge4" class="edge">
<title>x_8&#45;&gt;x_3</title>
<path fill="none" stroke="black" d="M277.85,-71.7C277.85,-63.98 277.85,-54.71 277.85,-46.11"/>
<polygon fill="black" stroke="black" points="281.35,-46.1 277.85,-36.1 274.35,-46.1 281.35,-46.1"/>
</g>
<!-- x_9 -->
<g id="node10" class="node">
<title>x_9</title>
<ellipse fill="none" stroke="black" cx="359.85" cy="-90" rx="18" ry="18"/>
<text text-anchor="middle" x="359.85" y="-86.3" font-family="Times,serif" font-size="14.00">9</text>
</g>
<!-- x_9&#45;&gt;x_4 -->
<g id="edge5" class="edge">
<title>x_9&#45;&gt;x_4</title>
<path fill="none" stroke="black" d="M359.85,-71.7C359.85,-63.98 359.85,-54.71 359.85,-46.11"/>
<polygon fill="black" stroke="black" points="363.35,-46.1 359.85,-36.1 356.35,-46.1 363.35,-46.1"/>
</g>
<!-- x_10 -->
<g id="node11" class="node">
<title>x_10</title>
<ellipse fill="none" stroke="black" cx="31.85" cy="-166.75" rx="23" ry="23"/>
<text text-anchor="middle" x="31.85" y="-163.05" font-family="Times,serif" font-size="14.00">10</text>
</g>
<!-- x_10&#45;&gt;x_5 -->
<g id="edge6" class="edge">
<title>x_10&#45;&gt;x_5</title>
<path fill="none" stroke="gray" stroke-dasharray="5,2" d="M31.85,-143.73C31.85,-135.11 31.85,-125.18 31.85,-116.27"/>
<ellipse fill="gray" stroke="gray" cx="31.85" cy="-112.13" rx="4" ry="4"/>
</g>
<!-- x_11 -->
<g id="node12" class="node">
<title>x_11</title>
<ellipse fill="none" stroke="black" cx="113.85" cy="-166.75" rx="23" ry="23"/>
<text text-anchor="middle" x="113.85" y="-163.05" font-family="Times,serif" font-size="14.00">11</text>
</g>
<!-- x_11&#45;&gt;x_6 -->
<g id="edge7" class="edge">
<title>x_11&#45;&gt;x_6</title>
<path fill="none" stroke="gray" stroke-dasharray="5,2" d="M113.85,-143.73C113.85,-135.11 113.85,-125.18 113.85,-116.27"/>
<ellipse fill="gray" stroke="gray" cx="113.85" cy="-112.13" rx="4" ry="4"/>
</g>
<!-- x_12 -->
<g id="node13" class="node">
<title>x_12</title>
<ellipse fill="none" stroke="black" cx="195.85" cy="-166.75" rx="23" ry="23"/>
<text text-anchor="middle" x="195.85" y="-163.05" font-family="Times,serif" font-size="14.00">12</text>
</g>
<!-- x_12&#45;&gt;x_7 -->
<g id="edge8" class="edge">
<title>x_12&#45;&gt;x_7</title>
<path fill="none" stroke="gray" stroke-dasharray="5,2" d="M195.85,-143.73C195.85,-135.11 195.85,-125.18 195.85,-116.27"/>
<ellipse fill="gray" stroke="gray" cx="195.85" cy="-112.13" rx="4" ry="4"/>
</g>
<!-- x_13 -->
<g id="node14" class="node">
<title>x_13</title>
<ellipse fill="none" stroke="black" cx="277.85" cy="-166.75" rx="23" ry="23"/>
<text text-anchor="middle" x="277.85" y="-163.05" font-family="Times,serif" font-size="14.00">13</text>
</g>
<!-- x_13&#45;&gt;x_8 -->
<g id="edge9" class="edge">
<title>x_13&#45;&gt;x_8</title>
<path fill="none" stroke="gray" stroke-dasharray="5,2" d="M277.85,-143.73C277.85,-135.11 277.85,-125.18 277.85,-116.27"/>
<ellipse fill="gray" stroke="gray" cx="277.85" cy="-112.13" rx="4" ry="4"/>
</g>
<!-- x_14 -->
<g id="node15" class="node">
<title>x_14</title>
<ellipse fill="none" stroke="black" cx="359.85" cy="-166.75" rx="23" ry="23"/>
<text text-anchor="middle" x="359.85" y="-163.05" font-family="Times,serif" font-size="14.00">14</text>
</g>
<!-- x_14&#45;&gt;x_9 -->
<g id="edge10" class="edge">
<title>x_14&#45;&gt;x_9</title>
<path fill="none" stroke="gray" stroke-dasharray="5,2" d="M359.85,-143.73C359.85,-135.11 359.85,-125.18 359.85,-116.27"/>
<ellipse fill="gray" stroke="gray" cx="359.85" cy="-112.13" rx="4" ry="4"/>
</g>
</g>
</svg>