<?xml version="1.0" encoding="UTF-8" standalone="no"?>
<!DOCTYPE svg PUBLIC "-//W3C//DTD SVG 1.1//EN"
 "http://www.w3.org/Graphics/SVG/1.1/DTD/svg11.dtd">
<!-- Generated by graphviz version 2.43.0 (0)
 -->
<!-- Title: hgf&#45;nodes Pages: 1 -->
<svg width="152pt" height="188pt"
 viewBox="0.00 0.00 152.00 188.00" xmlns="http://www.w3.org/2000/svg" xmlns:xlink="http://www.w3.org/1999/xlink">
<g id="graph0" class="graph" transform="scale(1 1) rotate(0) translate(4 184)">
<title>hgf&#45;nodes</title>
<polygon fill="white" stroke="transparent" points="-4,4 -4,-184 148,-184 148,4 -4,4"/>
<!-- x_0 -->
<g id="node1" class="node">
<title>x_0</title>
<ellipse fill="lightgrey" stroke="black" cx="18" cy="-18" rx="18" ry="18"/>
<text text-anchor="middle" x="18" y="-14.3" font-family="Times,serif" font-size="14.00">0</text>
</g>
<!-- x_1 -->
<g id="node2" class="node">
<title>x_1</title>
<ellipse fill="lightgrey" stroke="black" cx="72" cy="-18" rx="18" ry="18"/>
<text text-anchor="middle" x="72" y="-14.3" font-family="Times,serif" font-size="14.00">1</text>
</g>
<!-- x_2 -->
<g id="node3" class="node">
<title>x_2</title>
<ellipse fill="lightgrey" stroke="black" cx="126" cy="-18" rx="18" ry="18"/>
<text text-anchor="middle" x="126" y="-14.3" font-family="Times,serif" font-size="14.00">2</text>
</g>
<!-- x_3 -->
<g id="node4" class="node">
<title>x_3</title>
<ellipse fill="none" stroke="black" cx="18" cy="-90" rx="18" ry="18"/>
<text text-anchor="middle" x="18" y="-86.3" font-family="Times,serif" font-size="14.00">3</text>
</g>
<!-- x_3&#45;&gt;x_0 -->
<g id="edge1" class="edge">
<title>x_3&#45;&gt;x_0</title>
<path fill="none" stroke="black" d="M18,-71.7C18,-63.98 18,-54.71 18,-46.11"/>
<polygon fill="black" stroke="black" points="21.5,-46.1 18,-36.1 14.5,-46.1 21.5,-46.1"/>
</g>
<!-- x_4 -->
<g id="node5" class="node">
<title>x_4</title>
<ellipse fill="none" stroke="black" cx="72" cy="-90" rx="18" ry="18"/>
<text text-anchor="middle" x="72" y="-86.3" font-family="Times,serif" font-size="14.00">4</text>
</g>
<!-- x_4&#45;&gt;x_1 -->
<g id="edge2" class="edge">
<title>x_4&#45;&gt;x_1</title>
<path fill="none" stroke="black" d="M72,-71.7C72,-63.98 72,-54.71 72,-46.11"/>
<polygon fill="black" stroke="black" points="75.5,-46.1 72,-36.1 68.5,-46.1 75.5,-46.1"/>
</g>
<!-- x_5 -->
<g id="node6" class="node">
<title>x_5</title>
<ellipse fill="none" stroke="black" cx="126" cy="-90" rx="18" ry="18"/>
<text text-anchor="middle" x="126" y="-86.3" font-family="Times,serif" font-size="14.00">5</text>
</g>
<!-- x_5&#45;&gt;x_2 -->
<g id="edge3" class="edge">
<title>x_5&#45;&gt;x_2</title>
<path fill="none" stroke="black" d="M126,-71.7C126,-63.98 126,-54.71 126,-46.11"/>
<polygon fill="black" stroke="black" points="129.5,-46.1 126,-36.1 122.5,-46.1 129.5,-46.1"/>
</g>
<!-- x_6 -->
<g id="node7" class="node">
<title>x_6</title>
<ellipse fill="none" stroke="black" cx="72" cy="-162" rx="18" ry="18"/>
<text text-anchor="middle" x="72" y="-158.3" font-family="Times,serif" font-size="14.00">6</text>
</g>
<!-- x_6&#45;&gt;x_3 -->
<g id="edge4" class="edge">
<title>x_6&#45;&gt;x_3</title>
<path fill="none" stroke="gray" stroke-dasharray="5,2" d="M61.33,-147.17C53.42,-136.91 42.51,-122.77 33.61,-111.24"/>
<ellipse fill="gray" stroke="gray" cx="31.09" cy="-107.97" rx="4" ry="4"/>
</g>
<!-- x_6&#45;&gt;x_4 -->
<g id="edge5" class="edge">
<title>x_6&#45;&gt;x_4</title>
<path fill="none" stroke="gray" stroke-dasharray="5,2" d="M72,-143.7C72,-135.39 72,-125.28 72,-116.14"/>
<ellipse fill="gray" stroke="gray" cx="72" cy="-112.1" rx="4" ry="4"/>
</g>
<!-- x_6&#45;&gt;x_5 -->
<g id="edge6" class="edge">
<title>x_6&#45;&gt;x_5</title>
<path fill="none" stroke="gray" stroke-dasharray="5,2" d="M82.67,-147.17C90.58,-136.91 101.49,-122.77 110.39,-111.24"/>
<ellipse fill="gray" stroke="gray" cx="112.91" cy="-107.97" rx="4" ry="4"/>
</g>
</g>
</svg>