<?xml version="1.0" encoding="UTF-8" standalone="no"?>
<!DOCTYPE svg PUBLIC "-//W3C//DTD SVG 1.1//EN"
 "http://www.w3.org/Graphics/SVG/1.1/DTD/svg11.dtd">
<!-- Generated by graphviz version 9.0.0 (20231125.0833)
 -->
<!-- Title: hgf&#45;nodes Pages: 1 -->
<svg width="506pt" height="283pt"
 viewBox="0.00 0.00 505.85 283.40" xmlns="http://www.w3.org/2000/svg" xmlns:xlink="http://www.w3.org/1999/xlink">
<g id="graph0" class="graph" transform="scale(1 1) rotate(0) translate(4 279.4)">
<title>hgf&#45;nodes</title>
<polygon fill="white" stroke="none" points="-4,4 -4,-279.4 501.85,-279.4 501.85,4 -4,4"/>
<!-- x_0 -->
<g id="node1" class="node">
<title>x_0</title>
<polygon fill="#e2d8c1" stroke="black" points="243,-36 195.13,-18 243,0 290.87,-18 243,-36"/>
<text text-anchor="middle" x="243" y="-13.32" font-family="Times,serif" font-size="14.00">Ca&#45;0</text>
</g>
<!-- x_1 -->
<g id="node2" class="node">
<title>x_1</title>
<polygon fill="none" stroke="black" points="45,-108 9,-108 9,-72 45,-72 45,-108"/>
<text text-anchor="middle" x="27" y="-85.33" font-family="Times,serif" font-size="14.00">1</text>
</g>
<!-- x_1&#45;&gt;x_0 -->
<g id="edge1" class="edge">
<title>x_1&#45;&gt;x_0</title>
<path fill="none" stroke="black" d="M45.38,-77.68C49.14,-75.62 53.13,-73.62 57,-72 105.28,-51.78 163.72,-36.54 202.05,-27.7"/>
<polygon fill="black" stroke="black" points="202.81,-31.12 211.79,-25.5 201.27,-24.29 202.81,-31.12"/>
</g>
<!-- x_2 -->
<g id="node3" class="node">
<title>x_2</title>
<polygon fill="none" stroke="black" points="102,-108 66,-108 66,-72 102,-72 102,-108"/>
<text text-anchor="middle" x="84" y="-85.33" font-family="Times,serif" font-size="14.00">2</text>
</g>
<!-- x_2&#45;&gt;x_0 -->
<g id="edge2" class="edge">
<title>x_2&#45;&gt;x_0</title>
<path fill="none" stroke="black" d="M102.24,-80.97C128.84,-69.26 178.67,-47.32 211.34,-32.94"/>
<polygon fill="black" stroke="black" points="212.57,-36.22 220.31,-28.99 209.75,-29.81 212.57,-36.22"/>
</g>
<!-- x_3 -->
<g id="node4" class="node">
<title>x_3</title>
<polygon fill="none" stroke="black" points="168,-108 132,-108 132,-72 168,-72 168,-108"/>
<text text-anchor="middle" x="150" y="-85.33" font-family="Times,serif" font-size="14.00">3</text>
</g>
<!-- x_3&#45;&gt;x_0 -->
<g id="edge3" class="edge">
<title>x_3&#45;&gt;x_0</title>
<path fill="none" stroke="black" d="M168.37,-75.17C182.75,-64.35 202.88,-49.2 218.61,-37.36"/>
<polygon fill="black" stroke="black" points="220.65,-40.21 226.53,-31.4 216.44,-34.61 220.65,-40.21"/>
</g>
<!-- x_4 -->
<g id="node5" class="node">
<title>x_4</title>
<polygon fill="none" stroke="black" points="231,-108 195,-108 195,-72 231,-72 231,-108"/>
<text text-anchor="middle" x="213" y="-85.33" font-family="Times,serif" font-size="14.00">4</text>
</g>
<!-- x_4&#45;&gt;x_0 -->
<g id="edge4" class="edge">
<title>x_4&#45;&gt;x_0</title>
<path fill="none" stroke="black" d="M220.42,-71.7C223.97,-63.41 228.29,-53.32 232.2,-44.2"/>
<polygon fill="black" stroke="black" points="235.37,-45.7 236.09,-35.13 228.93,-42.94 235.37,-45.7"/>
</g>
<!-- x_5 -->
<g id="node6" class="node">
<title>x_5</title>
<polygon fill="none" stroke="black" points="291,-108 255,-108 255,-72 291,-72 291,-108"/>
<text text-anchor="middle" x="273" y="-85.33" font-family="Times,serif" font-size="14.00">5</text>
</g>
<!-- x_5&#45;&gt;x_0 -->
<g id="edge5" class="edge">
<title>x_5&#45;&gt;x_0</title>
<path fill="none" stroke="black" d="M265.58,-71.7C262.03,-63.41 257.71,-53.32 253.8,-44.2"/>
<polygon fill="black" stroke="black" points="257.07,-42.94 249.91,-35.13 250.63,-45.7 257.07,-42.94"/>
</g>
<!-- x_6 -->
<g id="node7" class="node">
<title>x_6</title>
<polygon fill="none" stroke="black" points="354,-108 318,-108 318,-72 354,-72 354,-108"/>
<text text-anchor="middle" x="336" y="-85.33" font-family="Times,serif" font-size="14.00">6</text>
</g>
<!-- x_6&#45;&gt;x_0 -->
<g id="edge6" class="edge">
<title>x_6&#45;&gt;x_0</title>
<path fill="none" stroke="black" d="M317.63,-75.17C303.25,-64.35 283.12,-49.2 267.39,-37.36"/>
<polygon fill="black" stroke="black" points="269.56,-34.61 259.47,-31.4 265.35,-40.21 269.56,-34.61"/>
</g>
<!-- x_7 -->
<g id="node8" class="node">
<title>x_7</title>
<polygon fill="none" stroke="black" points="418,-108 382,-108 382,-72 418,-72 418,-108"/>
<text text-anchor="middle" x="400" y="-85.33" font-family="Times,serif" font-size="14.00">7</text>
</g>
<!-- x_7&#45;&gt;x_0 -->
<g id="edge7" class="edge">
<title>x_7&#45;&gt;x_0</title>
<path fill="none" stroke="black" d="M381.58,-80.47C375.66,-77.75 369.06,-74.73 363,-72 333.11,-58.53 298.89,-43.45 274.66,-32.83"/>
<polygon fill="black" stroke="black" points="276.24,-29.7 265.67,-28.89 273.43,-36.11 276.24,-29.7"/>
</g>
<!-- x_8 -->
<g id="node9" class="node">
<title>x_8</title>
<polygon fill="none" stroke="black" points="483,-108 447,-108 447,-72 483,-72 483,-108"/>
<text text-anchor="middle" x="465" y="-85.33" font-family="Times,serif" font-size="14.00">8</text>
</g>
<!-- x_8&#45;&gt;x_0 -->
<g id="edge8" class="edge">
<title>x_8&#45;&gt;x_0</title>
<path fill="none" stroke="black" d="M446.66,-80.17C440.49,-77.37 433.52,-74.38 427,-72 377.91,-54.05 319.71,-38.16 282.11,-28.56"/>
<polygon fill="black" stroke="black" points="283.15,-25.22 272.6,-26.16 281.44,-32 283.15,-25.22"/>
</g>
<!-- x_9 -->
<g id="node10" class="node">
<title>x_9</title>
<ellipse fill="none" stroke="black" cx="18" cy="-167.85" rx="18" ry="18"/>
<text text-anchor="middle" x="18" y="-163.18" font-family="Times,serif" font-size="14.00">9</text>
</g>
<!-- x_9&#45;&gt;x_1 -->
<g id="edge9" class="edge">
<title>x_9&#45;&gt;x_1</title>
<path fill="none" stroke="black" d="M20.04,-149.64C21.09,-140.78 22.4,-129.74 23.6,-119.65"/>
<polygon fill="black" stroke="black" points="27.05,-120.25 24.76,-109.91 20.1,-119.43 27.05,-120.25"/>
</g>
<!-- x_10 -->
<g id="node11" class="node">
<title>x_10</title>
<ellipse fill="none" stroke="black" cx="78" cy="-167.85" rx="23.85" ry="23.85"/>
<text text-anchor="middle" x="78" y="-163.18" font-family="Times,serif" font-size="14.00">10</text>
</g>
<!-- x_10&#45;&gt;x_2 -->
<g id="edge10" class="edge">
<title>x_10&#45;&gt;x_2</title>
<path fill="none" stroke="black" d="M79.83,-143.68C80.43,-136.16 81.1,-127.72 81.72,-119.84"/>
<polygon fill="black" stroke="black" points="85.2,-120.24 82.5,-110 78.22,-119.69 85.2,-120.24"/>
</g>
<!-- x_11 -->
<g id="node12" class="node">
<title>x_11</title>
<ellipse fill="none" stroke="black" cx="144" cy="-167.85" rx="23.85" ry="23.85"/>
<text text-anchor="middle" x="144" y="-163.18" font-family="Times,serif" font-size="14.00">11</text>
</g>
<!-- x_11&#45;&gt;x_3 -->
<g id="edge11" class="edge">
<title>x_11&#45;&gt;x_3</title>
<path fill="none" stroke="black" d="M145.83,-143.68C146.43,-136.16 147.1,-127.72 147.72,-119.84"/>
<polygon fill="black" stroke="black" points="151.2,-120.24 148.5,-110 144.22,-119.69 151.2,-120.24"/>
</g>
<!-- x_12 -->
<g id="node13" class="node">
<title>x_12</title>
<ellipse fill="none" stroke="black" cx="210" cy="-167.85" rx="23.85" ry="23.85"/>
<text text-anchor="middle" x="210" y="-163.18" font-family="Times,serif" font-size="14.00">12</text>
</g>
<!-- x_12&#45;&gt;x_4 -->
<g id="edge12" class="edge">
<title>x_12&#45;&gt;x_4</title>
<path fill="none" stroke="black" d="M210.92,-143.68C211.21,-136.16 211.55,-127.72 211.86,-119.84"/>
<polygon fill="black" stroke="black" points="215.35,-120.13 212.25,-110 208.36,-119.86 215.35,-120.13"/>
</g>
<!-- x_13 -->
<g id="node14" class="node">
<title>x_13</title>
<ellipse fill="none" stroke="black" cx="276" cy="-167.85" rx="23.85" ry="23.85"/>
<text text-anchor="middle" x="276" y="-163.18" font-family="Times,serif" font-size="14.00">13</text>
</g>
<!-- x_13&#45;&gt;x_5 -->
<g id="edge13" class="edge">
<title>x_13&#45;&gt;x_5</title>
<path fill="none" stroke="black" d="M275.08,-143.68C274.79,-136.16 274.45,-127.72 274.14,-119.84"/>
<polygon fill="black" stroke="black" points="277.64,-119.86 273.75,-110 270.65,-120.13 277.64,-119.86"/>
</g>
<!-- x_14 -->
<g id="node15" class="node">
<title>x_14</title>
<ellipse fill="none" stroke="black" cx="342" cy="-167.85" rx="23.85" ry="23.85"/>
<text text-anchor="middle" x="342" y="-163.18" font-family="Times,serif" font-size="14.00">14</text>
</g>
<!-- x_14&#45;&gt;x_6 -->
<g id="edge14" class="edge">
<title>x_14&#45;&gt;x_6</title>
<path fill="none" stroke="black" d="M340.17,-143.68C339.57,-136.16 338.9,-127.72 338.28,-119.84"/>
<polygon fill="black" stroke="black" points="341.78,-119.69 337.5,-110 334.8,-120.24 341.78,-119.69"/>
</g>
<!-- x_15 -->
<g id="node16" class="node">
<title>x_15</title>
<ellipse fill="none" stroke="black" cx="408" cy="-167.85" rx="23.85" ry="23.85"/>
<text text-anchor="middle" x="408" y="-163.18" font-family="Times,serif" font-size="14.00">15</text>
</g>
<!-- x_15&#45;&gt;x_7 -->
<g id="edge15" class="edge">
<title>x_15&#45;&gt;x_7</title>
<path fill="none" stroke="black" d="M405.56,-143.68C404.76,-136.16 403.87,-127.72 403.04,-119.84"/>
<polygon fill="black" stroke="black" points="406.53,-119.57 402,-110 399.57,-120.31 406.53,-119.57"/>
</g>
<!-- x_16 -->
<g id="node17" class="node">
<title>x_16</title>
<ellipse fill="none" stroke="black" cx="474" cy="-167.85" rx="23.85" ry="23.85"/>
<text text-anchor="middle" x="474" y="-163.18" font-family="Times,serif" font-size="14.00">16</text>
</g>
<!-- x_16&#45;&gt;x_8 -->
<g id="edge16" class="edge">
<title>x_16&#45;&gt;x_8</title>
<path fill="none" stroke="black" d="M471.25,-143.68C470.36,-136.16 469.36,-127.72 468.42,-119.84"/>
<polygon fill="black" stroke="black" points="471.91,-119.51 467.25,-109.99 464.96,-120.34 471.91,-119.51"/>
</g>
<!-- x_17 -->
<g id="node18" class="node">
<title>x_17</title>
<ellipse fill="none" stroke="black" cx="243" cy="-251.55" rx="23.85" ry="23.85"/>
<text text-anchor="middle" x="243" y="-246.88" font-family="Times,serif" font-size="14.00">17</text>
</g>
<!-- x_17&#45;&gt;x_9 -->
<g id="edge17" class="edge">
<title>x_17&#45;&gt;x_9</title>
<path fill="none" stroke="gray" stroke-dasharray="5,2" d="M219.22,-246.76C180.77,-239.94 103.36,-223.25 45,-191.7 42.41,-190.3 39.84,-188.62 37.37,-186.82"/>
<ellipse fill="gray" stroke="gray" cx="33.88" cy="-184.01" rx="4" ry="4"/>
</g>
<!-- x_17&#45;&gt;x_10 -->
<g id="edge18" class="edge">
<title>x_17&#45;&gt;x_10</title>
<path fill="none" stroke="gray" stroke-dasharray="5,2" d="M220.9,-242.17C194.19,-231.71 148.17,-212.62 111,-191.7 108.78,-190.45 106.52,-189.09 104.28,-187.68"/>
<ellipse fill="gray" stroke="gray" cx="100.56" cy="-185.24" rx="4" ry="4"/>
</g>
<!-- x_17&#45;&gt;x_11 -->
<g id="edge19" class="edge">
<title>x_17&#45;&gt;x_11</title>
<path fill="none" stroke="gray" stroke-dasharray="5,2" d="M224.84,-235.57C209.07,-222.55 186.09,-203.59 168.66,-189.2"/>
<ellipse fill="gray" stroke="gray" cx="165.51" cy="-186.6" rx="4" ry="4"/>
</g>
<!-- x_17&#45;&gt;x_12 -->
<g id="edge20" class="edge">
<title>x_17&#45;&gt;x_12</title>
<path fill="none" stroke="gray" stroke-dasharray="5,2" d="M234.33,-229.09C230.57,-219.78 226.1,-208.72 222.03,-198.64"/>
<ellipse fill="gray" stroke="gray" cx="220.41" cy="-194.63" rx="4" ry="4"/>
</g>
<!-- x_17&#45;&gt;x_13 -->
<g id="edge21" class="edge">
<title>x_17&#45;&gt;x_13</title>
<path fill="none" stroke="gray" stroke-dasharray="5,2" d="M251.67,-229.09C255.43,-219.78 259.9,-208.72 263.97,-198.64"/>
<ellipse fill="gray" stroke="gray" cx="265.59" cy="-194.63" rx="4" ry="4"/>
</g>
<!-- x_17&#45;&gt;x_14 -->
<g id="edge22" class="edge">
<title>x_17&#45;&gt;x_14</title>
<path fill="none" stroke="gray" stroke-dasharray="5,2" d="M261.16,-235.57C276.93,-222.55 299.91,-203.59 317.34,-189.2"/>
<ellipse fill="gray" stroke="gray" cx="320.49" cy="-186.6" rx="4" ry="4"/>
</g>
<!-- x_17&#45;&gt;x_15 -->
<g id="edge23" class="edge">
<title>x_17&#45;&gt;x_15</title>
<path fill="none" stroke="gray" stroke-dasharray="5,2" d="M265.1,-242.17C291.81,-231.71 337.83,-212.62 375,-191.7 377.22,-190.45 379.48,-189.09 381.72,-187.68"/>
<ellipse fill="gray" stroke="gray" cx="385.44" cy="-185.24" rx="4" ry="4"/>
</g>
<!-- x_17&#45;&gt;x_16 -->
<g id="edge24" class="edge">
<title>x_17&#45;&gt;x_16</title>
<path fill="none" stroke="gray" stroke-dasharray="5,2" d="M266.44,-246.1C304.42,-238.35 381.18,-220.39 441,-191.7 443.3,-190.6 445.61,-189.35 447.89,-188.01"/>
<ellipse fill="gray" stroke="gray" cx="451.63" cy="-185.63" rx="4" ry="4"/>
</g>
</g>
</svg>
